<?xml version="1.0" encoding="UTF-8"?>
<!DOCTYPE svg PUBLIC "-//W3C//DTD SVG 1.1//EN" "http://www.w3.org/Graphics/SVG/1.1/DTD/svg11.dtd">
<!-- Creator: CorelDRAW -->
<svg xmlns="http://www.w3.org/2000/svg" xml:space="preserve" width="1282px" height="552px" version="1.1" style="shape-rendering:geometricPrecision; text-rendering:geometricPrecision; image-rendering:optimizeQuality; fill-rule:evenodd; clip-rule:evenodd"
viewBox="0 0 754.39 324.93"
 xmlns:xlink="http://www.w3.org/1999/xlink"
 xmlns:xodm="http://www.corel.com/coreldraw/odm/2003">
 <defs>
  <style type="text/css">
   <![CDATA[
    .str0 {stroke:black;stroke-width:1.39;stroke-miterlimit:22.9256}
    .fil3 {fill:black}
    .fil8 {fill:#3592B2}
    .fil7 {fill:#3B0000}
    .fil1 {fill:#570514}
    .fil10 {fill:#999999}
    .fil5 {fill:#B50000}
    .fil6 {fill:#DCDEE2}
    .fil9 {fill:#EEAD30}
    .fil2 {fill:#F9B708}
    .fil0 {fill:red}
    .fil4 {fill:white}
   ]]>
  </style>
 </defs>
 <g id="Слой_x0020_1">
  <metadata id="CorelCorpID_0Corel-Layer"/>
  <g id="_140662583327408">
   <path class="fil0 str0" d="M458.87 182.58c-4.26,4 -7.86,13.82 -9.7,10.88 -2.39,-3.8 4.78,-11.69 7.93,-14.23 6.04,-4.87 25.69,-14.33 22.52,-7.59 -1.81,3.84 -4.3,-0.88 -7.9,3.54 4.45,5.29 75.76,12.6 87.94,13.95 16.01,1.77 33.52,1.51 49.69,1.55 13.36,0.03 36.16,-4.17 45.05,5.25l6.59 -4.48 -8.7 -4.43c2.84,-6.19 11.11,1.99 13.05,2.97 2.61,1.33 11.03,3.23 8.9,9.7l-7.66 -5.6c-9.73,0.28 -12.85,10.32 -20.45,14.11 -10.09,5.03 -11.68,7.17 -23.89,10.39 -20.88,5.49 -43.85,4.67 -65.34,3.53 -20.54,-1.09 -41.22,-3.06 -60.77,-9.36 -22.51,-7.25 -23.83,-16.01 -37.26,-30.18zm-44.05 -58.11c5.62,-2.38 51.98,7.37 61.18,8.82 33.58,5.31 45.08,25.47 35.52,28.33 -3.82,1.15 -59.69,-4.34 -67.26,-5.49 -13.22,-2 -15.1,-1.44 -25.18,-10.77 -5.69,-5.26 -15.9,-15.95 -4.26,-20.89zm-180.95 -93.91c13.61,-2.21 15.93,5.82 16.63,16.88 0.62,9.77 -0.73,19.98 -3.21,29.48 -6.48,24.82 -21.45,22.93 -44.75,18.7 -8.99,-1.63 -21.88,-3.67 -20,-14.54 1.12,-6.42 5.35,-19.16 8.39,-25.02 4.65,-8.96 6.49,-13.18 16.32,-17.46 8.98,-3.9 16.82,-6.45 26.62,-8.04zm-59.71 53.46c-5.36,1.52 -12.36,-2.55 -16.88,-5.31 -7.83,-4.77 -3.65,-8.62 1.32,-13.15 5.7,-5.19 16.15,-14.4 24.1,-16.49 2.13,-0.56 3.57,-0.29 5.02,0.59 -1.36,4.59 -1.1,0.31 -3.08,3.61l-4.55 12.92c-0.89,3.14 -4.67,16.04 -5.93,17.83zm362.23 6.79c-0.77,1.15 2.22,7.33 -7.48,8.25 -3.78,0.36 -14.11,-1.25 -18.63,-1.76 -25.19,-2.83 -91.6,-7.48 -113.07,-6.81 -20.7,0.64 -57.82,-2.85 -75.78,1.94 -5.63,1.5 -29.19,2.79 -37.09,3.54 -15.45,1.45 -21.84,0.52 -22.58,-15.34 -0.76,-16.22 0.53,-51.03 18.17,-58.92 12.77,-5.71 56.24,-8.4 71.44,-8.51 40.98,-0.28 104.32,2.53 141,20.13 -28.98,-34.78 -181.84,-30.7 -226.14,-23.61 -85.62,13.72 -111.41,61.08 -133.87,58.12 -9.36,-1.23 -56.55,-5.97 -62.02,-1.03l24.43 23.25c4.25,-6.21 5.19,-19.05 18.34,-18.17 10.34,0.7 38.98,24.85 43.91,30.47 7.71,8.78 17.62,-1.47 24.42,12.71 8.03,-4.69 25.93,-7.66 33.5,0.89 2.53,7.66 -8.38,14.67 0.9,22.54 7.8,6.61 22.4,50.24 32.33,58.39 5.08,-16.59 26.09,-62.8 38.32,-74.64 30.01,-29.06 54.14,2.35 65.37,27.63 12.36,27.82 16.85,56.82 25.88,84.9 11.14,34.62 25.89,45.27 63.96,48.63 75.89,6.69 149.64,5.26 225.39,-0.18 42.08,-3.01 55.46,-6.22 75.15,-40.32 15.88,-27.51 5.66,-65.5 -2.31,-93.71 -6.62,9.98 -3.41,11.04 -20.82,15.05 -11.75,2.71 -21.96,4.8 -24.79,-7.81 -2.34,-10.43 3.9,-16.14 13.11,-20.28 14.41,-6.46 13.02,-6.12 25.27,0.4 -8.66,-32.24 -58.16,-37.41 -86.75,-36.01 -20.5,1 -38.62,2.96 -59.19,1.47 -25.38,-1.83 -31.13,3.9 -50.37,-11.21z"/>
   <path class="fil1 str0" d="M606.72 290.74l66.24 -4.2c-1.29,6.24 -7.25,7.66 -11.57,11.66 -4.91,4.55 -12.29,3.65 -19.42,3.11 -8.28,-0.62 -31.26,-3.53 -35.25,-10.57zm-251.5 27.68c5.74,-5.37 16.09,-8.25 24.97,-17.83 9.27,-10 9.65,-15.86 15.46,-26.85 3.6,0.4 16.37,5.94 12.25,12.14 -3.34,5.02 -8.21,12.44 -12.53,16.46 -8.24,7.67 -29.26,17.47 -40.15,16.08zm-217.41 -45.73c3.3,-9.51 1.06,-9.85 1.98,-18.61 4.77,1.39 4.4,4.9 6.7,8.72 1.94,3.2 5.03,5.13 6.71,8.25 -5.28,1.46 -9.79,2.45 -15.39,1.64zm-9.94 0.53c-5.56,-7.75 -6.08,-19.12 3.92,-23.78l4.99 3.06c0.11,9.76 1.26,10.78 -1.98,20.16l-6.93 0.56zm-18.64 -5.93c-6.29,-0.39 -7.83,-6.27 -7.6,-11.66 0.29,-6.57 1.56,-10.12 8.47,-9.73 5.72,6.72 4.7,14.98 -0.87,21.39zm636.1 -21.9c1.16,10.83 -16.71,34.54 -26.09,41.49 -9.68,7.16 -47.06,21.63 -55.39,14.02 -0.11,-0.1 14.18,-15.06 17.11,-15.66 10.29,-2.11 18.73,-2.76 29.29,-6.01 27.58,-8.51 31.29,-32.32 35.08,-33.84zm-624.02 10.68c-1.6,5.47 0.93,12.56 -6.7,10.15 3.65,-7.39 4.47,-10.44 0.97,-18.24 -4.08,-9.1 9.98,-3.81 13.95,-1.78 -4.12,3.77 -6.35,3.47 -8.22,9.87zm236.44 1.19c2.06,-3.34 4.6,-5.46 6.69,-9.65 1.69,-3.37 3.12,-6.67 5.18,-9.84 14.66,0.34 -2.61,22.93 -5.9,24.62 -3.56,-1.12 -4.4,-1.99 -5.97,-5.13zm-288.2 -120.88c18.73,26.63 13.12,91.15 41.77,104.07 1.47,1.53 -10.81,0.16 -12.97,11.43 -1.16,6.02 -0.22,13.61 5.47,17.51 1.37,0.94 37.32,-1.06 14.28,12.57 -17.18,10.16 -60.98,9.59 -73.15,-9.81 -20.93,-33.39 -21.68,-120.5 24.6,-135.77zm84.8 77.33c2.31,0.22 29.26,13.66 38.66,15.7 20.68,4.48 0.26,-26.44 9.52,-38.35l39.88 25.89 9.6 60.07 1.89 -0.29c-15.52,-1.24 -91.94,-2.3 -99.71,-10.22 -7.47,-7.62 -14.18,-21.9 -28.42,-25.62 -11.42,-2.98 -29.95,-9.44 -28.75,-23.97l66.83 32.28 -9.5 -35.49zm212.52 0.96c-2.22,-6.11 -2.41,-7.35 -6.32,-12.86 -3.24,-4.55 -5.43,-9.52 1.67,-10.97l5.48 17.54c0.86,3.52 0.67,4.41 -0.83,6.29zm-4.6 52.55c-19.07,23.09 -55.61,15.14 -70.03,-9.98 -13.58,-23.68 -9.79,-58.98 14.58,-75.36 12.26,-8.24 28.54,-10.41 42.13,-3.55 6.53,3.31 15.92,4.97 8.56,12.05 -6.8,6.55 0.59,10.91 3.67,17.02 2.6,5.15 8.44,13.35 9.59,16.79 5.09,15.24 -1.17,3.78 -6.12,12.61 -10.82,19.31 -17.34,18.28 -2.38,30.42zm-200.84 -81.62c-0.01,-4.22 2.08,-12.38 3.85,-16.43l11.81 4.89c0.19,2.38 -0.43,4.48 -1.09,6.87 -2.08,7.58 -2.31,5.94 -14.57,4.67zm217.46 63.79c13.99,19.19 19.44,22.86 3.6,44 -9.42,12.56 -27.84,25.94 -44.52,26.93 -104.93,6.26 -105.29,-132.37 -62.92,-163.53 15.77,-11.6 30.86,-19.69 51.88,-19.46 16.43,0.18 15.84,0.69 21.57,14.13 3.46,8.12 6.95,17.61 9.09,26.1 -24.41,-9.15 -41.56,-13.34 -61.89,7.94 -32.62,34.17 -11.98,99.6 34.86,99.74 36.09,0.11 46.16,-37.14 48.33,-35.85zm348.54 -91.38c-6.44,1.98 -9.35,3.22 -16.54,4.01 -8.49,0.93 -11.4,1.96 -13.03,-6.49 -2.05,-10.55 10.53,-18.73 19.49,-18.33 3.29,5.67 8.71,14.75 10.08,20.81zm-517.92 -19.03c-2.68,5.14 -0.59,7.65 -1.47,12.79 -2.79,-2.2 -8.3,-7.83 -9.77,-11.26l11.24 -1.53zm525.42 3.54c0.72,4.77 1.88,12.06 -4.11,13.22 -1.99,-4.3 -9.3,-17.8 -10.04,-20.97 4.75,-0.33 4.23,1.03 7.83,3.61 2.15,1.55 4.34,2.55 6.32,4.14zm-465 13.93c1.67,-11.47 16.14,-31.23 26.63,-37.23 16.55,-9.47 38.13,-0.59 42.74,15.22 -18.05,-0.7 -24.14,-0.92 -41.17,4.97 -13.73,4.75 -21.97,14.53 -28.2,17.04zm-232.6 2.66c-2.81,-9.43 1.42,-21.85 7.49,-29.36 7.12,-8.81 19.47,-7.02 22.36,3.19 -6.45,4.49 -10.5,4.07 -17.51,10.73 -3.32,3.16 -10.12,14.45 -12.34,15.44zm105.73 26.78c3.53,-3.54 5.95,-16.35 1.9,-19.91 -5.02,-4.41 -11.06,-1 -11.55,-13.39 -0.43,-10.75 6.58,-27.61 14.13,-35.77 9.19,-9.95 33.38,-10.54 28.83,7.49 -4.12,16.32 -25.25,58.31 -21.15,75.57 3.75,15.82 28.14,16.89 33.14,9.8 3.05,-4.33 9.78,-31.76 11.36,-38.47 7.11,-30.15 -18.81,-18.08 -8.13,-31.05l21.67 24.64 2.08 -1.27 -0.54 -18.83c4.11,3.41 13.14,26.5 16.85,33.56 5.4,10.27 19.16,24.08 11.53,34.37 -5.41,-3.53 -43.34,-29.08 -45.94,-29.34 -0.12,7.05 -1.37,39.7 -0.27,44.01l-65.5 -28.76 -0.8 -12.6 12.39 -0.05zm38.3 -13.6c-6.36,-7.54 -17.37,-1.97 -12.69,-14.48 2.61,-6.98 5.21,-13.76 8.04,-20.66 9.7,-23.66 3.35,-24.46 33.93,-19.74l-3.67 17.64c-8.95,2.07 -18.12,-2.34 -22,6.86 -3.68,8.73 5.63,9.8 11.5,14.55l1.91 0.44 -13.37 51.74 -1.75 -0.4c-12.38,5.59 -25.67,-1.61 -21.6,-17.93 3.3,0.12 13.49,0.89 16.02,0.25l3.68 -18.27zm-151.16 11.45c-14.25,-11.92 -21.05,-52.32 -19.98,-69.33 1.46,-23.29 21.16,-41.86 45.69,-46.01 12.13,-2.05 19.97,9.96 27.91,17.55 17.38,16.6 10.69,16.56 17.89,-0.39 9.64,-22.69 43.38,9.91 52.86,20.64 -18.28,13.56 -41.46,49.33 -11.85,63.05l-2.21 13.07 -12.84 -0.73c-3.26,4.59 -4.03,18.22 0.85,21.63 4.53,3.17 16.9,3.97 21.03,5.95l8.1 31.57c-15.67,-3.96 -41.14,-18.02 -55.61,-26.01 -10.75,-5.94 -14.94,-46.19 -19.15,-59.25 -20.93,-65.01 -51.29,-27.91 -51.2,-1.99 0.02,7.58 4.59,8.17 2.51,15.35 -1.51,5.2 -2.58,9.88 -4,14.9zm405.1 -96.06c-8.3,-1.42 -17.52,1.51 -23.98,-3.71 -5.51,-4.45 -9.27,-13.01 -0.67,-16.16 14.14,-5.17 39.04,5.3 24.65,19.87zm-117.32 -28.2c17.98,-3.86 38.04,10.26 15.09,25.38 -11.36,7.49 -40.62,-19.89 -15.09,-25.38zm3.33 28.83c-6.97,0.92 -47.46,4.72 -51.37,2.63 -5.83,-3.14 -6.3,-36.26 4.39,-42.49 25.18,-14.67 65.23,-18.53 94.29,-13.4 23.47,4.14 20.18,16.03 40.18,15.83 17.59,-0.17 35.68,0.54 53.11,2.85 27.94,3.71 63.45,10.02 69.44,40.92l-90.43 -6.88c13.18,-27.45 -31.5,-31.62 -38.33,-18.93 -5.21,9.69 1.92,12.39 4.31,17.98l-70.66 0.35c3.56,-5.58 16.59,-7.57 9.22,-21 -9.34,-17 -42.92,-13.06 -40.85,5.25 1.44,12.74 17.13,14.66 16.74,16.71l-0.04 0.18zm-312.72 10.53c-3.37,-9.62 -4.61,-43.77 -2.67,-53.89 2.73,-14.14 3.15,-12.73 16.63,-11.46 29.42,2.77 52.37,15.31 74.97,15.23 16.92,-0.06 38.27,1.9 54.65,5.87 0.09,2.84 -9.58,9.5 -13.36,10.18 -2.51,0.45 -17.78,-1.69 -21.69,-2.14 -10.25,-1.16 -37.9,-2.37 -46.84,0.48 -15.87,5.07 -19.1,-0.69 -38.06,11.16 -17.53,10.96 -12.74,13.45 -23.63,24.57zm261.14 -52.87c0.88,-26.01 30.41,-24.78 51.44,-26.89 24.04,-2.41 53.22,-2.07 77.37,-0.27 33.99,2.55 100.94,6.48 113.17,43.04 -32.33,-11.87 -59.37,-14.96 -93.76,-15.28 -24.19,-0.23 -12.09,2.02 -27.77,-8.31 -16.48,-10.85 -44.8,-9.86 -63.98,-8.23 -30.36,2.57 -31.03,4.56 -56.47,15.94zm266.66 44.84c19.24,15.11 24.99,9.38 50.37,11.21 20.57,1.49 38.69,-0.47 59.19,-1.47 28.59,-1.4 78.09,3.77 86.75,36.01 -12.25,-6.52 -10.86,-6.86 -25.27,-0.4 -9.21,4.14 -15.45,9.85 -13.11,20.28 2.83,12.61 13.04,10.52 24.79,7.81 17.41,-4.01 14.2,-5.07 20.82,-15.05 7.97,28.21 18.19,66.2 2.31,93.71 -19.69,34.1 -33.07,37.31 -75.15,40.32 -75.75,5.44 -149.5,6.87 -225.39,0.18 -38.07,-3.36 -52.82,-14.01 -63.96,-48.63 -9.03,-28.08 -13.52,-57.08 -25.88,-84.9 -11.23,-25.28 -35.36,-56.69 -65.37,-27.63 -12.23,11.84 -33.24,58.05 -38.32,74.64 -9.93,-8.15 -24.53,-51.78 -32.33,-58.39 -9.28,-7.87 1.63,-14.88 -0.9,-22.54 -7.57,-8.55 -25.47,-5.58 -33.5,-0.89 -6.8,-14.18 -16.71,-3.93 -24.42,-12.71 -4.93,-5.62 -33.57,-29.77 -43.91,-30.47 -13.15,-0.88 -14.09,11.96 -18.34,18.17l-24.43 -23.25c5.47,-4.94 52.66,-0.2 62.02,1.03 22.46,2.96 48.25,-44.4 133.87,-58.12 44.3,-7.09 197.16,-11.17 226.14,23.61 -36.68,-17.6 -100.02,-20.41 -141,-20.13 -15.2,0.11 -58.67,2.8 -71.44,8.51 -17.64,7.89 -18.93,42.7 -18.17,58.92 0.74,15.86 7.13,16.79 22.58,15.34 7.9,-0.75 31.46,-2.04 37.09,-3.54 17.96,-4.79 55.08,-1.3 75.78,-1.94 21.47,-0.67 87.88,3.98 113.07,6.81 4.52,0.51 14.85,2.12 18.63,1.76 9.7,-0.92 6.71,-7.1 7.48,-8.25zm-535 -22.41c2.31,20.61 4.37,40.85 5.86,61.55 2.08,29.03 8.99,29.05 17.1,52.24 10.34,29.55 -3,89.39 33.02,104.64 44.97,19.04 69.2,-18.37 119.65,-12.14 20.41,2.53 50.64,1.46 67.65,5.16 21.98,4.79 24.26,20.73 39.51,31.72 25.91,18.67 92.31,17.23 113.14,-7.79 15.27,-18.35 17.14,-22.01 43.93,-18.01 26.9,4.02 44.76,2.49 70.44,4.3 24.36,1.71 48.84,-0.4 71.99,1.42 21.28,1.67 37.97,11.18 59.14,13.35 40.44,4.15 82.84,-3.12 100.07,-41.85 15.45,-34.74 13.61,-82.21 -0.93,-116.85 -17.7,-42.19 -45.42,-52.04 -92.32,-50.04 -36.22,1.54 -96.42,12.17 -121.02,-18.27 -24.01,-29.71 -31.71,-59.07 -74.89,-67.16 -74.38,-13.93 -186.4,-17.3 -254.9,16.7 -15.21,7.55 -28.41,21.59 -45.85,22.71 -14.66,0.94 -48.03,-4.64 -64.62,-6.3 -40.83,-4.07 -94.4,-41.74 -86.97,24.62z"/>
   <path class="fil2 str0" d="M30.2 183.74c1.42,-5.02 2.49,-9.7 4,-14.9 2.08,-7.18 -2.49,-7.77 -2.51,-15.35 -0.09,-25.92 30.27,-63.02 51.2,1.99 4.21,13.06 8.4,53.31 19.15,59.25 14.47,7.99 39.94,22.05 55.61,26.01l-8.1 -31.57c-4.13,-1.98 -16.5,-2.78 -21.03,-5.95 -4.88,-3.41 -4.11,-17.04 -0.85,-21.63l12.84 0.73 2.21 -13.07c-29.61,-13.72 -6.43,-49.49 11.85,-63.05 -9.48,-10.73 -43.22,-43.33 -52.86,-20.64 -7.2,16.95 -0.51,16.99 -17.89,0.39 -7.94,-7.59 -15.78,-19.6 -27.91,-17.55 -24.53,4.15 -44.23,22.72 -45.69,46.01 -1.07,17.01 5.73,57.41 19.98,69.33z"/>
   <path class="fil3 str0" d="M378.89 249.39c-2.17,-1.29 -12.24,35.96 -48.33,35.85 -46.84,-0.14 -67.48,-65.57 -34.86,-99.74 20.33,-21.28 37.48,-17.09 61.89,-7.94 -2.14,-8.49 -5.63,-17.98 -9.09,-26.1 -5.73,-13.44 -5.14,-13.95 -21.57,-14.13 -21.02,-0.23 -36.11,7.86 -51.88,19.46 -42.37,31.16 -42.01,169.79 62.92,163.53 16.68,-0.99 35.1,-14.37 44.52,-26.93 15.84,-21.14 10.39,-24.81 -3.6,-44z"/>
   <path class="fil4 str0" d="M321.31 88.31l0.04 -0.18c0.39,-2.05 -15.3,-3.97 -16.74,-16.71 -2.07,-18.31 31.51,-22.25 40.85,-5.25 7.37,13.43 -5.66,15.42 -9.22,21l70.66 -0.35c-2.39,-5.59 -9.52,-8.29 -4.31,-17.98 6.83,-12.69 51.51,-8.52 38.33,18.93l90.43 6.88c-5.99,-30.9 -41.5,-37.21 -69.44,-40.92 -17.43,-2.31 -35.52,-3.02 -53.11,-2.85 -20,0.2 -16.71,-11.69 -40.18,-15.83 -29.06,-5.13 -69.11,-1.27 -94.29,13.4 -10.69,6.23 -10.22,39.35 -4.39,42.49 3.91,2.09 44.4,-1.71 51.37,-2.63z"/>
   <path class="fil0 str0" d="M154.35 213.71l9.5 35.49 -66.83 -32.28c-1.2,14.53 17.33,20.99 28.75,23.97 14.24,3.72 20.95,18 28.42,25.62 7.77,7.92 84.19,8.98 99.71,10.22l-1.89 0.29 -9.6 -60.07 -39.88 -25.89c-9.26,11.91 11.16,42.83 -9.52,38.35 -9.4,-2.04 -36.35,-15.48 -38.66,-15.7z"/>
   <path class="fil3 str0" d="M61.39 160.86c12.23,-6.56 23.32,43.21 23.57,49.55 0.44,11.24 -1.02,54.22 -17.64,56.74 -20.58,3.11 -30.56,-55.04 -20.98,-83.69 1.59,-4.75 11.36,-20.61 15.05,-22.6zm8.16 -24.48c-46.28,15.27 -45.53,102.38 -24.6,135.77 12.17,19.4 55.97,19.97 73.15,9.81 23.04,-13.63 -12.91,-11.63 -14.28,-12.57 -5.69,-3.9 -6.63,-11.49 -5.47,-17.51 2.16,-11.27 14.44,-9.9 12.97,-11.43 -28.65,-12.92 -23.04,-77.44 -41.77,-104.07z"/>
   <path class="fil0 str0" d="M269.73 45.97c25.44,-11.38 26.11,-13.37 56.47,-15.94 19.18,-1.63 47.5,-2.62 63.98,8.23 15.68,10.33 3.58,8.08 27.77,8.31 34.39,0.32 61.43,3.41 93.76,15.28 -12.23,-36.56 -79.18,-40.49 -113.17,-43.04 -24.15,-1.8 -53.33,-2.14 -77.37,0.27 -21.03,2.11 -50.56,0.88 -51.44,26.89z"/>
   <path class="fil2 str0" d="M154.23 127.5c2.89,-0.91 8.22,2.06 6.16,6.74 -1.34,3.06 -3.27,9.29 -6.69,10.24 -10.33,2.88 -10.53,-13.52 0.53,-16.98zm-11.17 58.39l-12.39 0.05 0.8 12.6 65.5 28.76c-1.1,-4.31 0.15,-36.96 0.27,-44.01 2.6,0.26 40.53,25.81 45.94,29.34 7.63,-10.29 -6.13,-24.1 -11.53,-34.37 -3.71,-7.06 -12.74,-30.15 -16.85,-33.56l0.54 18.83 -2.08 1.27 -21.67 -24.64c-10.68,12.97 15.24,0.9 8.13,31.05 -1.58,6.71 -8.31,34.14 -11.36,38.47 -5,7.09 -29.39,6.02 -33.14,-9.8 -4.1,-17.26 17.03,-59.25 21.15,-75.57 4.55,-18.03 -19.64,-17.44 -28.83,-7.49 -7.55,8.16 -14.56,25.02 -14.13,35.77 0.49,12.39 6.53,8.98 11.55,13.39 4.05,3.56 1.63,16.37 -1.9,19.91z"/>
   <path class="fil0 str0" d="M8.59 98.84c10.89,-11.12 6.1,-13.61 23.63,-24.57 18.96,-11.85 22.19,-6.09 38.06,-11.16 8.94,-2.85 36.59,-1.64 46.84,-0.48 3.91,0.45 19.18,2.59 21.69,2.14 3.78,-0.68 13.45,-7.34 13.36,-10.18 -16.38,-3.97 -37.73,-5.93 -54.65,-5.87 -22.6,0.08 -45.55,-12.46 -74.97,-15.23 -13.48,-1.27 -13.9,-2.68 -16.63,11.46 -1.94,10.12 -0.7,44.27 2.67,53.89z"/>
   <path class="fil5 str0" d="M313.75 255.58c3.34,0.25 14.09,6.99 19.44,7.45 3.55,0.31 8.62,-0.76 10.2,3.23 1.6,4.02 0.03,6.89 -4.48,7.43 -9.8,1.17 -40.48,-5.53 -25.16,-18.11zm19.87 -56.46c14.56,-3.78 24.92,13.8 25.95,25.4 1.02,11.44 -6.63,29.06 -19.95,31.11 -28.38,4.39 -39.26,-47.86 -6,-56.51zm-36.97 7.27c3.13,-1.28 6.67,1.94 8.75,4.25 2.6,2.88 0.42,6.39 0.13,10.63 -0.52,7.75 3.12,19.76 -4.77,23.64 -9.59,4.71 -10.06,-10.62 -9.88,-15.79 0.21,-5.93 -1.04,-19.97 5.77,-22.73zm8.26 -14.62c8.82,-10.88 45.04,-20.43 38.65,-5.22 -2.74,6.51 -13.52,3.33 -22.04,9.1 -2.94,1.99 -6.63,5.51 -10.42,4.21 -2.95,-1.01 -5.76,-5.43 -6.19,-8.09zm57.36 75.45c-14.96,-12.14 -8.44,-11.11 2.38,-30.42 4.95,-8.83 11.21,2.63 6.12,-12.61 -1.15,-3.44 -6.99,-11.64 -9.59,-16.79 -3.08,-6.11 -10.47,-10.47 -3.67,-17.02 7.36,-7.08 -2.03,-8.74 -8.56,-12.05 -13.59,-6.86 -29.87,-4.69 -42.13,3.55 -24.37,16.38 -28.16,51.68 -14.58,75.36 14.42,25.12 50.96,33.07 70.03,9.98z"/>
   <path class="fil4 str0" d="M235.85 33.84c-32.55,4.81 -40.86,14.67 -48.74,43.66 -3.27,12.07 3.54,11.39 13.78,14.2 4.4,1.2 23.49,3.62 27.46,2.65 10.23,-2.49 12.21,-7.44 14.66,-15.99 2.38,-8.27 3.94,-17.78 3.88,-26.34 -0.03,-4.86 -0.23,-8.78 -1.91,-13.39 -2.09,-5.77 -2.68,-5.75 -9.13,-4.79z"/>
   <path class="fil1 str0" d="M479.03 199.28c2.2,-0.83 66.74,8.81 76.31,9.53 14.84,1.12 28.49,0.29 43.19,0.49 6.25,0.08 39.81,-1.83 40.94,-1.67 -9.22,18.63 -140.27,14.45 -160.44,-8.35zm61.24 4.86c-9.08,-0.62 -64.95,-6.16 -69.21,-11.49 -2.71,-3.39 -12.54,-12.69 -5.31,-14.24 1.7,-0.37 38.67,8.01 44.25,8.9 45.09,7.19 59.18,6.92 103.51,7.78 2.17,0.04 55.91,-1.45 33.14,8.82 -9.06,4.08 -91.13,1.26 -106.38,0.23zm-81.4 -21.56c13.43,14.17 14.75,22.93 37.26,30.18 19.55,6.3 40.23,8.27 60.77,9.36 21.49,1.14 44.46,1.96 65.34,-3.53 12.21,-3.22 13.8,-5.36 23.89,-10.39 7.6,-3.79 10.72,-13.83 20.45,-14.11l7.66 5.6c2.13,-6.47 -6.29,-8.37 -8.9,-9.7 -1.94,-0.98 -10.21,-9.16 -13.05,-2.97l8.7 4.43 -6.59 4.48c-8.89,-9.42 -31.69,-5.22 -45.05,-5.25 -16.17,-0.04 -33.68,0.22 -49.69,-1.55 -12.18,-1.35 -83.49,-8.66 -87.94,-13.95 3.6,-4.42 6.09,0.3 7.9,-3.54 3.17,-6.74 -16.48,2.72 -22.52,7.59 -3.15,2.54 -10.32,10.43 -7.93,14.23 1.84,2.94 5.44,-6.88 9.7,-10.88z"/>
   <path class="fil4 str0" d="M465.75 178.41c-7.23,1.55 2.6,10.85 5.31,14.24 4.26,5.33 60.13,10.87 69.21,11.49 15.25,1.03 97.32,3.85 106.38,-0.23 22.77,-10.27 -30.97,-8.78 -33.14,-8.82 -44.33,-0.86 -58.42,-0.59 -103.51,-7.78 -5.58,-0.89 -42.55,-9.27 -44.25,-8.9z"/>
   <path class="fil2 str0" d="M181.36 172.29l-3.68 18.27c-2.53,0.64 -12.72,-0.13 -16.02,-0.25 -4.07,16.32 9.22,23.52 21.6,17.93l1.75 0.4 13.37 -51.74 -1.91 -0.44c-5.87,-4.75 -15.18,-5.82 -11.5,-14.55 3.88,-9.2 13.05,-4.79 22,-6.86l3.67 -17.64c-30.58,-4.72 -24.23,-3.92 -33.93,19.74 -2.83,6.9 -5.43,13.68 -8.04,20.66 -4.68,12.51 6.33,6.94 12.69,14.48z"/>
   <path class="fil3 str0" d="M335.04 202.49c-30.34,7.9 -18.77,53.38 3.64,49.86 11.21,-1.75 18.18,-17.26 17.32,-26.79 -0.83,-9.29 -8.47,-26.32 -20.96,-23.07z"/>
   <path class="fil5 str0" d="M55 228.39c-4.88,-8.47 -4.56,-18.83 -0.06,-27.29 3.9,-0.34 3.94,-0.09 7.44,0.91 1.71,5.35 0.47,10.49 0.45,16.16 -0.03,5.98 -0.18,10.85 -7.83,10.22zm10.96 12.36c0.87,0.5 16.67,15.75 11.93,3.79 -1.4,-3.51 -8.05,-5.05 -10.05,-17.29 -5.72,-34.91 15.9,-27.99 7.71,-41.48l-7.77 4.52c-13.32,-6.88 -1.17,-12.82 2.99,-17.34l-6.28 -7.92c-27.06,10.89 -21.98,91.57 0.65,98.42 11.02,3.33 -0.07,-8.42 -1.77,-10.13 -5.69,-5.71 -3.91,-9.25 2.59,-12.57z"/>
   <path class="fil4 str0" d="M479.03 199.28c20.17,22.8 151.22,26.98 160.44,8.35 -1.13,-0.16 -34.69,1.75 -40.94,1.67 -14.7,-0.2 -28.35,0.63 -43.19,-0.49 -9.57,-0.72 -74.11,-10.36 -76.31,-9.53z"/>
   <path class="fil1 str0" d="M65.94 243.88c3.98,3.73 4.28,4.48 8.88,7.83 -0.11,2.86 -0.3,3.87 -2.46,6.07 -3.41,-2.13 -9.63,-7.48 -9.78,-11.64l3.36 -2.26zm13.34 -3.81c-10.83,-5.72 -11.74,-36.76 -0.87,-42.22 4.27,13.22 4.71,28.81 0.87,42.22zm-13.6 -57.79c2.19,-3.32 3.68,-3.54 6.79,-5.69 1.61,2.14 1.4,2.19 1.88,4.96l-6.06 4.47c-2.04,-1.8 -1.83,-1.35 -2.61,-3.74zm0.28 58.47c-6.5,3.32 -8.28,6.86 -2.59,12.57 1.7,1.71 12.79,13.46 1.77,10.13 -22.63,-6.85 -27.71,-87.53 -0.65,-98.42l6.28 7.92c-4.16,4.52 -16.31,10.46 -2.99,17.34l7.77 -4.52c8.19,13.49 -13.43,6.57 -7.71,41.48 2,12.24 8.65,13.78 10.05,17.29 4.74,11.96 -11.06,-3.29 -11.93,-3.79zm-4.57 -79.89c-3.69,1.99 -13.46,17.85 -15.05,22.6 -9.58,28.65 0.4,86.8 20.98,83.69 16.62,-2.52 18.08,-45.5 17.64,-56.74 -0.25,-6.34 -11.34,-56.11 -23.57,-49.55z"/>
   <path class="fil6 str0" d="M465.73 154.73c6.1,0.75 42.04,4.28 45.47,3.43 -0.34,-18.98 -56.16,-25.36 -69.94,-27.98 -0.84,5.44 4.71,12.53 6.69,17.75 1.82,4.8 -0.28,5.87 5.7,6.45 4,0.39 7.76,-0.17 12.08,0.35z"/>
   <path class="fil7 str0" d="M269.93 156.45c6.23,-2.51 14.47,-12.29 28.2,-17.04 17.03,-5.89 23.12,-5.67 41.17,-4.97 -4.61,-15.81 -26.19,-24.69 -42.74,-15.22 -10.49,6 -24.96,25.76 -26.63,37.23z"/>
   <path class="fil3 str0" d="M745.33 245.39c-3.79,1.52 -7.5,25.33 -35.08,33.84 -10.56,3.25 -19,3.9 -29.29,6.01 -2.93,0.6 -17.22,15.56 -17.11,15.66 8.33,7.61 45.71,-6.86 55.39,-14.02 9.38,-6.95 27.25,-30.66 26.09,-41.49z"/>
   <path class="fil1 str0" d="M441.26 130.18c13.78,2.62 69.6,9 69.94,27.98 -3.43,0.85 -39.37,-2.68 -45.47,-3.43 -4.32,-0.52 -8.08,0.04 -12.08,-0.35 -5.98,-0.58 -3.88,-1.65 -5.7,-6.45 -1.98,-5.22 -7.53,-12.31 -6.69,-17.75zm-5.01 -0.19c0.17,0.25 9.08,21.97 9.23,22.76 -15.18,-1.55 -18.85,-3.98 -27.99,-14.5 -3,-3.46 -8.61,-10.52 0.53,-11.12 0.04,0 18.21,2.85 18.23,2.86zm-21.43 -5.52c-11.64,4.94 -1.43,15.63 4.26,20.89 10.08,9.33 11.96,8.77 25.18,10.77 7.57,1.15 63.44,6.64 67.26,5.49 9.56,-2.86 -1.94,-23.02 -35.52,-28.33 -9.2,-1.45 -55.56,-11.2 -61.18,-8.82z"/>
   <path class="fil1 str0" d="M235.85 33.84c6.45,-0.96 7.04,-0.98 9.13,4.79 1.68,4.61 1.88,8.53 1.91,13.39 0.06,8.56 -1.5,18.07 -3.88,26.34 -2.45,8.55 -4.43,13.5 -14.66,15.99 -3.97,0.97 -23.06,-1.45 -27.46,-2.65 -10.24,-2.81 -17.05,-2.13 -13.78,-14.2 7.88,-28.99 16.19,-38.85 48.74,-43.66zm-1.98 -3.28c-9.8,1.59 -17.64,4.14 -26.62,8.04 -9.83,4.28 -11.67,8.5 -16.32,17.46 -3.04,5.86 -7.27,18.6 -8.39,25.02 -1.88,10.87 11.01,12.91 20,14.54 23.3,4.23 38.27,6.12 44.75,-18.7 2.48,-9.5 3.83,-19.71 3.21,-29.48 -0.7,-11.06 -3.02,-19.09 -16.63,-16.88z"/>
   <path class="fil8 str0" d="M317.98 59.48c-25.53,5.49 3.73,32.87 15.09,25.38 22.95,-15.12 2.89,-29.24 -15.09,-25.38z"/>
   <path class="fil3 str0" d="M355.22 318.42c10.89,1.39 31.91,-8.41 40.15,-16.08 4.32,-4.02 9.19,-11.44 12.53,-16.46 4.12,-6.2 -8.65,-11.74 -12.25,-12.14 -5.81,10.99 -6.19,16.85 -15.46,26.85 -8.88,9.58 -19.23,12.46 -24.97,17.83z"/>
   <path class="fil3 str0" d="M606.72 290.74c3.99,7.04 26.97,9.95 35.25,10.57 7.13,0.54 14.51,1.44 19.42,-3.11 4.32,-4 10.28,-5.42 11.57,-11.66l-66.24 4.2z"/>
   <path class="fil8 str0" d="M435.3 87.68c14.39,-14.57 -10.51,-25.04 -24.65,-19.87 -8.6,3.15 -4.84,11.71 0.67,16.16 6.46,5.22 15.68,2.29 23.98,3.71z"/>
   <path class="fil6 str0" d="M727.43 158.01c-1.37,-6.06 -6.79,-15.14 -10.08,-20.81 -8.96,-0.4 -21.54,7.78 -19.49,18.33 1.63,8.45 4.54,7.42 13.03,6.49 7.19,-0.79 10.1,-2.03 16.54,-4.01z"/>
   <path class="fil1 str0" d="M335.04 202.49c12.49,-3.25 20.13,13.78 20.96,23.07 0.86,9.53 -6.11,25.04 -17.32,26.79 -22.41,3.52 -33.98,-41.96 -3.64,-49.86zm-1.42 -3.37c-33.26,8.65 -22.38,60.9 6,56.51 13.32,-2.05 20.97,-19.67 19.95,-31.11 -1.03,-11.6 -11.39,-29.18 -25.95,-25.4z"/>
   <path class="fil9 str0" d="M436.25 129.99c-0.02,-0.01 -18.19,-2.86 -18.23,-2.86 -9.14,0.6 -3.53,7.66 -0.53,11.12 9.14,10.52 12.81,12.95 27.99,14.5 -0.15,-0.79 -9.06,-22.51 -9.23,-22.76z"/>
   <path class="fil7 str0" d="M37.33 159.11c2.22,-0.99 9.02,-12.28 12.34,-15.44 7.01,-6.66 11.06,-6.24 17.51,-10.73 -2.89,-10.21 -15.24,-12 -22.36,-3.19 -6.07,7.51 -10.3,19.93 -7.49,29.36z"/>
   <path class="fil3 str0" d="M79.28 240.07c3.84,-13.41 3.4,-29 -0.87,-42.22 -10.87,5.46 -9.96,36.5 0.87,42.22z"/>
   <path class="fil1 str0" d="M156.72 73.87c0.89,-4.08 18.75,-19.25 23.78,-19.36l-8.89 26.4c-4.53,-0.69 -11.59,-4.03 -14.89,-7.04zm17.44 10.15c1.26,-1.79 5.04,-14.69 5.93,-17.83l4.55 -12.92c1.98,-3.3 1.72,0.98 3.08,-3.61 -1.45,-0.88 -2.89,-1.15 -5.02,-0.59 -7.95,2.09 -18.4,11.3 -24.1,16.49 -4.97,4.53 -9.15,8.38 -1.32,13.15 4.52,2.76 11.52,6.83 16.88,5.31z"/>
   <path class="fil1 str0" d="M297.52 242c-4.08,-3.94 -3.04,-10.75 -2.91,-16.01 0.18,-7.41 -1.2,-10.52 3.62,-16.49 7.12,4.23 3.69,7.64 3.54,15.71 -0.1,5.81 2.79,16 -4.25,16.79zm-0.87 -35.61c-6.81,2.76 -5.56,16.8 -5.77,22.73 -0.18,5.17 0.29,20.5 9.88,15.79 7.89,-3.88 4.25,-15.89 4.77,-23.64 0.29,-4.24 2.47,-7.75 -0.13,-10.63 -2.08,-2.31 -5.62,-5.53 -8.75,-4.25z"/>
   <path class="fil1 str0" d="M309.33 192.95c3.95,-6.74 23.21,-12.31 30.93,-10.38 0.69,7.15 -7.85,4.49 -13.95,6.65 -5.01,1.78 -9.64,6.6 -14.21,7.34l-2.77 -3.61zm-4.42 -1.18c0.43,2.66 3.24,7.08 6.19,8.09 3.79,1.3 7.48,-2.22 10.42,-4.21 8.52,-5.77 19.3,-2.59 22.04,-9.1 6.39,-15.21 -29.83,-5.66 -38.65,5.22z"/>
   <path class="fil4 str0" d="M156.72 73.87c3.3,3.01 10.36,6.35 14.89,7.04l8.89 -26.4c-5.03,0.11 -22.89,15.28 -23.78,19.36z"/>
   <path class="fil10 str0" d="M127.87 273.22l6.93 -0.56c3.24,-9.38 2.09,-10.4 1.98,-20.16l-4.99 -3.06c-10,4.66 -9.48,16.03 -3.92,23.78z"/>
   <path class="fil3 str0" d="M297.52 242c7.04,-0.79 4.15,-10.98 4.25,-16.79 0.15,-8.07 3.58,-11.48 -3.54,-15.71 -4.82,5.97 -3.44,9.08 -3.62,16.49 -0.13,5.26 -1.17,12.07 2.91,16.01z"/>
   <path class="fil3 str0" d="M357.75 257.26c1.57,3.14 2.41,4.01 5.97,5.13 3.29,-1.69 20.56,-24.28 5.9,-24.62 -2.06,3.17 -3.49,6.47 -5.18,9.84 -2.09,4.19 -4.63,6.31 -6.69,9.65z"/>
   <path class="fil10 str0" d="M109.23 267.29c5.57,-6.41 6.59,-14.67 0.87,-21.39 -6.91,-0.39 -8.18,3.16 -8.47,9.73 -0.23,5.39 1.31,11.27 7.6,11.66z"/>
   <path class="fil1 str0" d="M58.48 224.44c-5.88,-1.24 -3.53,-17.54 -0.05,-20.02 2.24,2.21 0.52,18.65 0.05,20.02zm-3.48 3.95c7.65,0.63 7.8,-4.24 7.83,-10.22 0.02,-5.67 1.26,-10.81 -0.45,-16.16 -3.5,-1 -3.54,-1.25 -7.44,-0.91 -4.5,8.46 -4.82,18.82 0.06,27.29z"/>
   <path class="fil2 str0" d="M161.43 185.6c12.26,1.27 12.49,2.91 14.57,-4.67 0.66,-2.39 1.28,-4.49 1.09,-6.87l-11.81 -4.89c-1.77,4.05 -3.86,12.21 -3.85,16.43z"/>
   <path class="fil1 str0" d="M314.71 258.01c2.43,1.06 3.87,2.43 6.15,3.6 2.63,1.34 4.95,1.74 7.1,2.78 5.69,2.74 15.33,-1.3 12.71,6.05 -7.23,3.07 -24.66,-1.59 -28.82,-8.18l2.86 -4.25zm-0.96 -2.43c-15.32,12.58 15.36,19.28 25.16,18.11 4.51,-0.54 6.08,-3.41 4.48,-7.43 -1.58,-3.99 -6.65,-2.92 -10.2,-3.23 -5.35,-0.46 -16.1,-7.2 -19.44,-7.45z"/>
   <path class="fil3 str0" d="M309.33 192.95l2.77 3.61c4.57,-0.74 9.2,-5.56 14.21,-7.34 6.1,-2.16 14.64,0.5 13.95,-6.65 -7.72,-1.93 -26.98,3.64 -30.93,10.38z"/>
   <path class="fil3 str0" d="M340.67 270.44c2.62,-7.35 -7.02,-3.31 -12.71,-6.05 -2.15,-1.04 -4.47,-1.44 -7.1,-2.78 -2.28,-1.17 -3.72,-2.54 -6.15,-3.6l-2.86 4.25c4.16,6.59 21.59,11.25 28.82,8.18z"/>
   <path class="fil1 str0" d="M151.64 140.39c-2.31,-3.3 0.21,-7.29 3.97,-8.5 0.08,2.7 -1.73,6.97 -3.97,8.5zm2.59 -12.89c-11.06,3.46 -10.86,19.86 -0.53,16.98 3.42,-0.95 5.35,-7.18 6.69,-10.24 2.06,-4.68 -3.27,-7.65 -6.16,-6.74z"/>
   <path class="fil9 str0" d="M730.82 155.74c5.99,-1.16 4.83,-8.45 4.11,-13.22 -1.98,-1.59 -4.17,-2.59 -6.32,-4.14 -3.6,-2.58 -3.08,-3.94 -7.83,-3.61 0.74,3.17 8.05,16.67 10.04,20.97z"/>
   <path class="fil6 str0" d="M114.61 266.22c7.63,2.41 5.1,-4.68 6.7,-10.15 1.87,-6.4 4.1,-6.1 8.22,-9.87 -3.97,-2.03 -18.03,-7.32 -13.95,1.78 3.5,7.8 2.68,10.85 -0.97,18.24z"/>
   <path class="fil6 str0" d="M137.81 272.69c5.6,0.81 10.11,-0.18 15.39,-1.64 -1.68,-3.12 -4.77,-5.05 -6.71,-8.25 -2.3,-3.82 -1.93,-7.33 -6.7,-8.72 -0.92,8.76 1.32,9.1 -1.98,18.61z"/>
   <path class="fil3 str0" d="M366.87 214.67c1.5,-1.88 1.69,-2.77 0.83,-6.29l-5.48 -17.54c-7.1,1.45 -4.91,6.42 -1.67,10.97 3.91,5.51 4.1,6.75 6.32,12.86z"/>
   <path class="fil3 str0" d="M62.58 246.14c0.15,4.16 6.37,9.51 9.78,11.64 2.16,-2.2 2.35,-3.21 2.46,-6.07 -4.6,-3.35 -4.9,-4.1 -8.88,-7.83l-3.36 2.26z"/>
   <path class="fil0 str0" d="M198.27 140.51c1.47,3.43 6.98,9.06 9.77,11.26 0.88,-5.14 -1.21,-7.65 1.47,-12.79l-11.24 1.53z"/>
   <path class="fil3 str0" d="M58.48 224.44c0.47,-1.37 2.19,-17.81 -0.05,-20.02 -3.48,2.48 -5.83,18.78 0.05,20.02z"/>
   <path class="fil3 str0" d="M65.68 182.28c0.78,2.39 0.57,1.94 2.61,3.74l6.06 -4.47c-0.48,-2.77 -0.27,-2.82 -1.88,-4.96 -3.11,2.15 -4.6,2.37 -6.79,5.69z"/>
   <path class="fil2 str0" d="M151.64 140.39c2.24,-1.53 4.05,-5.8 3.97,-8.5 -3.76,1.21 -6.28,5.2 -3.97,8.5z"/>
  </g>
 </g>
</svg>
