<?xml version="1.0" encoding="UTF-8"?>
<!DOCTYPE svg PUBLIC "-//W3C//DTD SVG 1.1//EN" "http://www.w3.org/Graphics/SVG/1.1/DTD/svg11.dtd">
<!-- Creator: CorelDRAW -->
<svg xmlns="http://www.w3.org/2000/svg" xml:space="preserve" width="1282px" height="552px" version="1.1" style="shape-rendering:geometricPrecision; text-rendering:geometricPrecision; image-rendering:optimizeQuality; fill-rule:evenodd; clip-rule:evenodd"
viewBox="0 0 535.53 230.67"
 xmlns:xlink="http://www.w3.org/1999/xlink"
 xmlns:xodm="http://www.corel.com/coreldraw/odm/2003">
 <defs>
  <style type="text/css">
   <![CDATA[
    .str0 {stroke:black;stroke-width:0.99;stroke-miterlimit:22.9256}
    .fil0 {fill:none}
   ]]>
  </style>
 </defs>
 <g id="Слой_x0020_1">
  <metadata id="CorelCorpID_0Corel-Layer"/>
  <g id="_140664068425936">
   <path class="fil0 str0" d="M325.74 129.61c-3.02,2.84 -5.57,9.81 -6.88,7.72 -1.69,-2.69 3.39,-8.29 5.63,-10.1 4.28,-3.46 18.24,-10.17 15.98,-5.39 -1.28,2.73 -3.04,-0.62 -5.6,2.52 3.16,3.75 53.78,8.95 62.43,9.9 11.36,1.26 23.79,1.07 35.27,1.1 9.49,0.03 25.67,-2.96 31.98,3.73l4.68 -3.18 -6.18 -3.14c2.02,-4.4 7.89,1.4 9.27,2.1 1.85,0.94 7.82,2.3 6.31,6.89l-5.43 -3.98c-6.91,0.2 -9.12,7.33 -14.52,10.02 -7.16,3.57 -8.29,5.09 -16.96,7.37 -14.82,3.9 -31.13,3.32 -46.39,2.51 -14.57,-0.77 -29.26,-2.17 -43.13,-6.64 -15.98,-5.15 -16.92,-11.37 -26.46,-21.43zm-31.27 -41.25c4,-1.69 36.9,5.23 43.44,6.26 23.83,3.77 32,18.08 25.21,20.11 -2.71,0.82 -42.37,-3.08 -47.75,-3.89 -9.38,-1.43 -10.72,-1.03 -17.87,-7.65 -4.04,-3.74 -11.29,-11.32 -3.03,-14.83zm-128.45 -66.66c9.66,-1.57 11.31,4.12 11.81,11.98 0.44,6.93 -0.52,14.18 -2.28,20.92 -4.6,17.62 -15.23,16.28 -31.77,13.28 -6.38,-1.16 -15.53,-2.6 -14.19,-10.32 0.78,-4.56 3.79,-13.6 5.95,-17.76 3.3,-6.36 4.6,-9.36 11.58,-12.4 6.38,-2.77 11.95,-4.57 18.9,-5.7zm-42.38 37.94c-3.81,1.09 -8.78,-1.8 -11.99,-3.76 -5.56,-3.39 -2.59,-6.12 0.94,-9.34 4.04,-3.69 11.46,-10.22 17.11,-11.71 1.51,-0.4 2.53,-0.2 3.56,0.43 -0.96,3.25 -0.78,0.22 -2.18,2.56l-3.23 9.17c-0.64,2.23 -3.32,11.38 -4.21,12.65zm257.14 4.82c-0.55,0.82 1.57,5.21 -5.31,5.86 -2.68,0.26 -10.02,-0.89 -13.23,-1.25 -17.88,-2.01 -65.03,-5.3 -80.27,-4.83 -14.69,0.46 -41.04,-2.03 -53.79,1.38 -4,1.06 -20.72,1.98 -26.33,2.51 -10.97,1.02 -15.51,0.37 -16.03,-10.89 -0.54,-11.52 0.37,-36.22 12.9,-41.83 9.06,-4.05 39.92,-5.96 50.72,-6.04 29.08,-0.2 74.05,1.8 100.09,14.29 -20.57,-24.69 -129.09,-21.79 -160.53,-16.76 -60.79,9.74 -79.1,43.36 -95.04,41.26 -6.65,-0.87 -40.15,-4.24 -44.03,-0.73l17.35 16.5c3.01,-4.41 3.68,-13.52 13.01,-12.9 7.34,0.5 27.68,17.64 31.18,21.63 5.47,6.24 12.51,-1.04 17.33,9.03 5.7,-3.33 18.41,-5.44 23.78,0.63 1.8,5.44 -5.95,10.41 0.64,16 5.54,4.69 15.9,35.66 22.96,41.45 3.6,-11.78 18.51,-44.58 27.2,-52.99 21.3,-20.62 38.43,1.67 46.4,19.62 8.77,19.74 11.97,40.33 18.38,60.27 7.9,24.58 18.37,32.14 45.4,34.52 53.87,4.75 106.22,3.73 160,-0.12 29.87,-2.15 39.37,-4.43 53.34,-28.63 11.28,-19.53 4.02,-46.5 -1.63,-66.52 -4.7,7.08 -2.42,7.83 -14.78,10.68 -8.34,1.92 -15.59,3.41 -17.6,-5.54 -1.66,-7.41 2.77,-11.46 9.31,-14.4 10.22,-4.59 9.24,-4.34 17.94,0.28 -6.15,-22.89 -41.29,-26.55 -61.59,-25.56 -14.55,0.71 -27.41,2.1 -42.02,1.05 -18.01,-1.31 -22.1,2.76 -35.75,-7.97z"/>
   <path class="fil0 str0" d="M430.71 206.39l47.02 -2.98c-0.92,4.43 -5.15,5.44 -8.22,8.28 -3.48,3.23 -8.72,2.59 -13.78,2.21 -5.88,-0.44 -22.19,-2.51 -25.02,-7.51zm-178.54 19.66c4.07,-3.82 11.42,-5.86 17.72,-12.66 6.58,-7.1 6.85,-11.26 10.98,-19.07 2.55,0.29 11.62,4.22 8.69,8.62 -2.37,3.56 -5.83,8.83 -8.9,11.69 -5.84,5.44 -20.77,12.4 -28.49,11.42zm-154.34 -32.47c2.34,-6.75 0.75,-6.99 1.41,-13.21 3.38,0.98 3.12,3.48 4.75,6.19 1.38,2.27 3.58,3.64 4.76,5.85 -3.75,1.04 -6.95,1.74 -10.92,1.17zm-7.06 0.38c-3.94,-5.51 -4.31,-13.58 2.78,-16.88l3.55 2.16c0.08,6.94 0.89,7.66 -1.41,14.32l-4.92 0.4zm-13.23 -4.21c-4.47,-0.28 -5.56,-4.46 -5.39,-8.28 0.2,-4.66 1.1,-7.19 6.01,-6.91 4.06,4.77 3.34,10.64 -0.62,15.19zm451.56 -15.55c0.83,7.69 -11.86,24.52 -18.52,29.45 -6.87,5.09 -33.41,15.36 -39.32,9.95 -0.08,-0.06 10.06,-10.69 12.15,-11.11 7.3,-1.5 13.29,-1.96 20.78,-4.27 19.59,-6.04 22.22,-22.94 24.91,-24.02zm-442.99 7.58c-1.13,3.88 0.67,8.92 -4.75,7.21 2.59,-5.25 3.18,-7.41 0.69,-12.95 -2.89,-6.46 7.08,-2.71 9.9,-1.27 -2.92,2.68 -4.51,2.47 -5.84,7.01zm167.85 0.84c1.46,-2.36 3.27,-3.87 4.75,-6.84 1.2,-2.39 2.22,-4.74 3.68,-6.99 10.4,0.24 -1.86,16.28 -4.19,17.48 -2.52,-0.8 -3.12,-1.41 -4.24,-3.65zm-204.59 -85.81c13.3,18.91 9.31,64.71 29.66,73.88 1.04,1.09 -7.68,0.12 -9.21,8.11 -0.83,4.28 -0.16,9.67 3.88,12.44 0.97,0.66 26.49,-0.76 10.14,8.92 -12.2,7.21 -43.3,6.81 -51.93,-6.96 -14.86,-23.7 -15.39,-85.54 17.46,-96.39zm60.2 54.9c1.64,0.16 20.77,9.7 27.44,11.14 14.69,3.19 0.19,-18.77 6.76,-27.22l28.32 18.38 6.81 42.65 1.34 -0.21c-11.01,-0.88 -65.26,-1.64 -70.78,-7.26 -5.31,-5.4 -10.07,-15.55 -20.18,-18.18 -8.1,-2.12 -21.26,-6.71 -20.41,-17.02l47.44 22.92 -6.74 -25.2zm150.87 0.68c-1.58,-4.34 -1.72,-5.21 -4.49,-9.13 -2.3,-3.23 -3.85,-6.75 1.19,-7.78l3.88 12.45c0.61,2.49 0.48,3.13 -0.58,4.46zm-3.27 37.3c-13.54,16.4 -39.48,10.75 -49.71,-7.08 -9.65,-16.81 -6.95,-41.87 10.35,-53.49 8.7,-5.85 20.26,-7.4 29.9,-2.52 4.64,2.34 11.3,3.52 6.08,8.55 -4.83,4.65 0.42,7.75 2.61,12.08 1.84,3.66 5.99,9.48 6.81,11.92 3.61,10.82 -0.83,2.69 -4.35,8.96 -7.68,13.7 -12.31,12.97 -1.69,21.58zm-142.57 -57.94c-0.01,-2.99 1.48,-8.78 2.73,-11.66l8.38 3.47c0.14,1.69 -0.3,3.19 -0.77,4.88 -1.47,5.38 -1.64,4.21 -10.34,3.31zm154.37 45.29c9.93,13.63 13.8,16.23 2.55,31.23 -6.68,8.92 -19.76,18.42 -31.6,19.12 -74.49,4.45 -74.74,-93.96 -44.66,-116.09 11.19,-8.23 21.9,-13.97 36.82,-13.81 11.67,0.13 11.25,0.49 15.31,10.03 2.46,5.77 4.94,12.5 6.45,18.53 -17.32,-6.5 -29.5,-9.47 -43.93,5.64 -23.15,24.25 -8.5,70.7 24.75,70.8 25.62,0.08 32.77,-26.37 34.31,-25.45zm247.42 -64.87c-4.57,1.4 -6.63,2.29 -11.73,2.85 -6.04,0.66 -8.1,1.39 -9.26,-4.61 -1.45,-7.49 7.48,-13.3 13.84,-13.01 2.33,4.02 6.18,10.47 7.15,14.77zm-367.66 -13.51c-1.91,3.65 -0.42,5.43 -1.05,9.08 -1.97,-1.56 -5.89,-5.56 -6.93,-7.99l7.98 -1.09zm372.99 2.51c0.51,3.39 1.33,8.56 -2.92,9.39 -1.41,-3.05 -6.6,-12.64 -7.13,-14.89 3.37,-0.23 3.01,0.73 5.56,2.57 1.53,1.09 3.09,1.8 4.49,2.93zm-330.1 9.89c1.19,-8.14 11.46,-22.17 18.9,-26.43 11.75,-6.72 27.07,-0.42 30.34,10.81 -12.81,-0.5 -17.13,-0.66 -29.22,3.53 -9.75,3.37 -15.6,10.31 -20.02,12.09zm-165.12 1.89c-1.99,-6.69 1.01,-15.51 5.32,-20.84 5.05,-6.26 13.82,-4.98 15.87,2.26 -4.58,3.19 -7.45,2.89 -12.43,7.62 -2.36,2.25 -7.18,10.26 -8.76,10.96zm75.06 19.01c2.5,-2.51 4.22,-11.61 1.34,-14.13 -3.56,-3.13 -7.85,-0.71 -8.2,-9.51 -0.3,-7.63 4.68,-19.6 10.03,-25.39 6.53,-7.06 23.7,-7.48 20.47,5.32 -2.92,11.58 -17.92,41.39 -15.01,53.64 2.66,11.24 19.97,11.99 23.52,6.96 2.17,-3.08 6.95,-22.55 8.07,-27.31 5.04,-21.4 -13.36,-12.83 -5.77,-22.04l15.38 17.49 1.48 -0.9 -0.39 -13.37c2.92,2.42 9.33,18.81 11.97,23.83 3.83,7.29 13.59,17.09 8.18,24.39 -3.84,-2.5 -30.77,-20.64 -32.61,-20.82 -0.09,5 -0.98,28.18 -0.19,31.23l-46.5 -20.41 -0.57 -8.95 8.8 -0.03zm27.18 -9.65c-4.51,-5.36 -12.33,-1.4 -9,-10.29 1.85,-4.95 3.7,-9.76 5.7,-14.66 6.89,-16.8 2.39,-17.36 24.09,-14.01l-2.61 12.52c-6.35,1.47 -12.86,-1.66 -15.61,4.87 -2.62,6.2 3.99,6.96 8.16,10.33l1.36 0.31 -9.49 36.73 -1.25 -0.28c-8.79,3.96 -18.22,-1.15 -15.33,-12.73 2.34,0.08 9.58,0.63 11.37,0.18l2.61 -12.97zm-107.3 8.12c-10.12,-8.46 -14.95,-37.14 -14.19,-49.21 1.04,-16.54 15.02,-29.72 32.44,-32.66 8.61,-1.46 14.18,7.07 19.81,12.46 12.34,11.78 7.59,11.75 12.7,-0.28 6.85,-16.11 30.8,7.03 37.53,14.65 -12.98,9.62 -29.43,35.02 -8.42,44.76l-1.56 9.28 -9.12 -0.52c-2.31,3.26 -2.86,12.93 0.6,15.35 3.22,2.25 12,2.82 14.93,4.23l5.75 22.41c-11.12,-2.81 -29.2,-12.79 -39.47,-18.46 -7.64,-4.22 -10.61,-32.8 -13.6,-42.07 -14.85,-46.14 -36.4,-19.81 -36.35,-1.41 0.02,5.38 3.26,5.8 1.79,10.9 -1.07,3.69 -1.83,7.01 -2.84,10.57zm287.57 -68.19c-5.89,-1.01 -12.43,1.07 -17.02,-2.63 -3.91,-3.16 -6.58,-9.24 -0.48,-11.47 10.05,-3.68 27.72,3.76 17.5,14.1zm-83.28 -20.01c12.77,-2.75 27.01,7.28 10.71,18.01 -8.06,5.32 -28.84,-14.12 -10.71,-18.01zm2.36 20.46c-4.95,0.65 -33.69,3.35 -36.46,1.86 -4.14,-2.22 -4.47,-25.73 3.12,-30.15 17.87,-10.42 46.3,-13.16 66.93,-9.52 16.66,2.94 14.32,11.38 28.52,11.24 12.49,-0.12 25.33,0.38 37.7,2.02 19.84,2.63 45.05,7.12 49.3,29.05l-64.19 -4.88c9.35,-19.49 -22.37,-22.45 -27.22,-13.44 -3.7,6.88 1.37,8.8 3.06,12.77l-50.16 0.24c2.53,-3.96 11.78,-5.37 6.54,-14.91 -6.62,-12.07 -30.46,-9.27 -28.99,3.73 1.02,9.05 12.16,10.4 11.88,11.86l-0.03 0.13zm-222 7.48c-2.38,-6.83 -3.27,-31.08 -1.89,-38.26 1.94,-10.04 2.24,-9.04 11.81,-8.14 20.89,1.97 37.18,10.88 53.22,10.82 12.01,-0.04 27.16,1.34 38.8,4.16 0.06,2.02 -6.81,6.75 -9.49,7.23 -1.78,0.32 -12.62,-1.2 -15.4,-1.52 -7.28,-0.83 -26.91,-1.68 -33.25,0.34 -11.27,3.6 -13.56,-0.49 -27.02,7.92 -12.44,7.78 -9.04,9.55 -16.78,17.45zm185.39 -37.54c0.62,-18.46 21.58,-17.59 36.51,-19.09 17.07,-1.71 37.78,-1.47 54.93,-0.18 24.13,1.8 71.65,4.59 80.34,30.55 -22.95,-8.43 -42.15,-10.62 -66.57,-10.85 -17.16,-0.16 -8.58,1.43 -19.71,-5.9 -11.69,-7.7 -31.8,-7 -45.41,-5.84 -21.56,1.82 -22.04,3.24 -40.09,11.31zm189.3 31.83c13.65,10.73 17.74,6.66 35.75,7.97 14.61,1.05 27.47,-0.34 42.02,-1.05 20.3,-0.99 55.44,2.67 61.59,25.56 -8.7,-4.62 -7.72,-4.87 -17.94,-0.28 -6.54,2.94 -10.97,6.99 -9.31,14.4 2.01,8.95 9.26,7.46 17.6,5.54 12.36,-2.85 10.08,-3.6 14.78,-10.68 5.65,20.02 12.91,46.99 1.63,66.52 -13.97,24.2 -23.47,26.48 -53.34,28.63 -53.78,3.85 -106.13,4.87 -160,0.12 -27.03,-2.38 -37.5,-9.94 -45.4,-34.52 -6.41,-19.94 -9.61,-40.53 -18.38,-60.27 -7.97,-17.95 -25.1,-40.24 -46.4,-19.62 -8.69,8.41 -23.6,41.21 -27.2,52.99 -7.06,-5.79 -17.42,-36.76 -22.96,-41.45 -6.59,-5.59 1.16,-10.56 -0.64,-16 -5.37,-6.07 -18.08,-3.96 -23.78,-0.63 -4.82,-10.07 -11.86,-2.79 -17.33,-9.03 -3.5,-3.99 -23.84,-21.13 -31.18,-21.63 -9.33,-0.62 -10,8.49 -13.01,12.9l-17.35 -16.5c3.88,-3.51 37.38,-0.14 44.03,0.73 15.94,2.1 34.25,-31.52 95.04,-41.26 31.44,-5.03 139.96,-7.93 160.53,16.76 -26.04,-12.49 -71.01,-14.49 -100.09,-14.29 -10.8,0.08 -41.66,1.99 -50.72,6.04 -12.53,5.61 -13.44,30.31 -12.9,41.83 0.52,11.26 5.06,11.91 16.03,10.89 5.61,-0.53 22.33,-1.45 26.33,-2.51 12.75,-3.41 39.1,-0.92 53.79,-1.38 15.24,-0.47 62.39,2.82 80.27,4.83 3.21,0.36 10.55,1.51 13.23,1.25 6.88,-0.65 4.76,-5.04 5.31,-5.86zm-379.79 -15.9c1.64,14.63 3.1,28.99 4.15,43.69 1.48,20.61 6.38,20.62 12.14,37.08 7.35,20.98 -2.12,63.46 23.45,74.29 31.92,13.51 49.12,-13.05 84.94,-8.62 14.48,1.79 35.94,1.03 48.02,3.67 15.6,3.39 17.22,14.71 28.05,22.51 18.39,13.25 65.53,12.23 80.31,-5.53 10.84,-13.03 12.17,-15.62 31.19,-12.78 19.09,2.85 31.77,1.76 50,3.04 17.3,1.22 34.68,-0.27 51.1,1.01 15.12,1.19 26.96,7.94 41.99,9.49 28.71,2.94 58.81,-2.22 71.04,-29.72 10.97,-24.66 9.66,-58.35 -0.66,-82.95 -12.57,-29.95 -32.25,-36.94 -65.54,-35.52 -25.71,1.09 -68.45,8.64 -85.91,-12.97 -17.04,-21.09 -22.51,-41.93 -53.16,-47.67 -52.81,-9.9 -132.33,-12.29 -180.95,11.85 -10.8,5.36 -20.17,15.32 -32.55,16.12 -10.41,0.67 -34.1,-3.29 -45.88,-4.47 -28.98,-2.89 -67.01,-29.63 -61.73,17.48z"/>
   <path class="fil0 str0" d="M21.44 130.43c1.01,-3.56 1.77,-6.88 2.84,-10.57 1.47,-5.1 -1.77,-5.52 -1.79,-10.9 -0.05,-18.4 21.5,-44.73 36.35,1.41 2.99,9.27 5.96,37.85 13.6,42.07 10.27,5.67 28.35,15.65 39.47,18.46l-5.75 -22.41c-2.93,-1.41 -11.71,-1.98 -14.93,-4.23 -3.46,-2.42 -2.91,-12.09 -0.6,-15.35l9.12 0.52 1.56 -9.28c-21.01,-9.74 -4.56,-35.14 8.42,-44.76 -6.73,-7.62 -30.68,-30.76 -37.53,-14.65 -5.11,12.03 -0.36,12.06 -12.7,0.28 -5.63,-5.39 -11.2,-13.92 -19.81,-12.46 -17.42,2.94 -31.4,16.12 -32.44,32.66 -0.76,12.07 4.07,40.75 14.19,49.21z"/>
   <path class="fil0 str0" d="M268.97 177.04c-1.54,-0.92 -8.69,25.53 -34.31,25.45 -33.25,-0.1 -47.9,-46.55 -24.75,-70.8 14.43,-15.11 26.61,-12.14 43.93,-5.64 -1.51,-6.03 -3.99,-12.76 -6.45,-18.53 -4.06,-9.54 -3.64,-9.9 -15.31,-10.03 -14.92,-0.16 -25.63,5.58 -36.82,13.81 -30.08,22.13 -29.83,120.54 44.66,116.09 11.84,-0.7 24.92,-10.2 31.6,-19.12 11.25,-15 7.38,-17.6 -2.55,-31.23z"/>
   <path class="fil0 str0" d="M228.09 62.69l0.03 -0.13c0.28,-1.46 -10.86,-2.81 -11.88,-11.86 -1.47,-13 22.37,-15.8 28.99,-3.73 5.24,9.54 -4.01,10.95 -6.54,14.91l50.16 -0.24c-1.69,-3.97 -6.76,-5.89 -3.06,-12.77 4.85,-9.01 36.57,-6.05 27.22,13.44l64.19 4.88c-4.25,-21.93 -29.46,-26.42 -49.3,-29.05 -12.37,-1.64 -25.21,-2.14 -37.7,-2.02 -14.2,0.14 -11.86,-8.3 -28.52,-11.24 -20.63,-3.64 -49.06,-0.9 -66.93,9.52 -7.59,4.42 -7.26,27.93 -3.12,30.15 2.77,1.49 31.51,-1.21 36.46,-1.86z"/>
   <path class="fil0 str0" d="M109.57 151.71l6.74 25.2 -47.44 -22.92c-0.85,10.31 12.31,14.9 20.41,17.02 10.11,2.63 14.87,12.78 20.18,18.18 5.52,5.62 59.77,6.38 70.78,7.26l-1.34 0.21 -6.81 -42.65 -28.32 -18.38c-6.57,8.45 7.93,30.41 -6.76,27.22 -6.67,-1.44 -25.8,-10.98 -27.44,-11.14z"/>
   <path class="fil0 str0" d="M43.58 114.19c8.68,-4.66 16.55,30.68 16.73,35.18 0.31,7.97 -0.72,38.49 -12.52,40.27 -14.61,2.22 -21.7,-39.06 -14.89,-59.4 1.12,-3.38 8.06,-14.64 10.68,-16.05zm5.79 -17.38c-32.85,10.85 -32.32,72.69 -17.46,96.39 8.63,13.77 39.73,14.17 51.93,6.96 16.35,-9.68 -9.17,-8.26 -10.14,-8.92 -4.04,-2.77 -4.71,-8.16 -3.88,-12.44 1.53,-7.99 10.25,-7.02 9.21,-8.11 -20.35,-9.17 -16.36,-54.97 -29.66,-73.88z"/>
   <path class="fil0 str0" d="M191.48 32.63c18.05,-8.07 18.53,-9.49 40.09,-11.31 13.61,-1.16 33.72,-1.86 45.41,5.84 11.13,7.33 2.55,5.74 19.71,5.9 24.42,0.23 43.62,2.42 66.57,10.85 -8.69,-25.96 -56.21,-28.75 -80.34,-30.55 -17.15,-1.29 -37.86,-1.53 -54.93,0.18 -14.93,1.5 -35.89,0.63 -36.51,19.09z"/>
   <path class="fil0 str0" d="M109.49 90.51c2.05,-0.64 5.83,1.46 4.37,4.78 -0.96,2.18 -2.33,6.6 -4.75,7.28 -7.34,2.04 -7.47,-9.6 0.38,-12.06zm-7.93 41.45l-8.8 0.03 0.57 8.95 46.5 20.41c-0.79,-3.05 0.1,-26.23 0.19,-31.23 1.84,0.18 28.77,18.32 32.61,20.82 5.41,-7.3 -4.35,-17.1 -8.18,-24.39 -2.64,-5.02 -9.05,-21.41 -11.97,-23.83l0.39 13.37 -1.48 0.9 -15.38 -17.49c-7.59,9.21 10.81,0.64 5.77,22.04 -1.12,4.76 -5.9,24.23 -8.07,27.31 -3.55,5.03 -20.86,4.28 -23.52,-6.96 -2.91,-12.25 12.09,-42.06 15.01,-53.64 3.23,-12.8 -13.94,-12.38 -20.47,-5.32 -5.35,5.79 -10.33,17.76 -10.03,25.39 0.35,8.8 4.64,6.38 8.2,9.51 2.88,2.52 1.16,11.62 -1.34,14.13z"/>
   <path class="fil0 str0" d="M6.09 70.17c7.74,-7.9 4.34,-9.67 16.78,-17.45 13.46,-8.41 15.75,-4.32 27.02,-7.92 6.34,-2.02 25.97,-1.17 33.25,-0.34 2.78,0.32 13.62,1.84 15.4,1.52 2.68,-0.48 9.55,-5.21 9.49,-7.23 -11.64,-2.82 -26.79,-4.2 -38.8,-4.16 -16.04,0.06 -32.33,-8.85 -53.22,-10.82 -9.57,-0.9 -9.87,-1.9 -11.81,8.14 -1.38,7.18 -0.49,31.43 1.89,38.26z"/>
   <path class="fil0 str0" d="M222.72 181.44c2.38,0.17 10.01,4.95 13.81,5.28 2.52,0.22 6.12,-0.54 7.24,2.3 1.13,2.85 0.02,4.89 -3.18,5.27 -6.96,0.83 -28.74,-3.92 -17.87,-12.85zm14.12 -40.09c10.33,-2.68 17.69,9.8 18.42,18.03 0.72,8.13 -4.71,20.63 -14.17,22.09 -20.15,3.11 -27.87,-33.98 -4.25,-40.12zm-26.26 5.16c2.23,-0.9 4.74,1.38 6.22,3.02 1.84,2.04 0.29,4.54 0.09,7.55 -0.37,5.5 2.22,14.02 -3.39,16.78 -6.8,3.34 -7.14,-7.54 -7.01,-11.21 0.15,-4.21 -0.73,-14.18 4.09,-16.14zm5.87 -10.38c6.26,-7.72 31.98,-14.5 27.44,-3.7 -1.94,4.62 -9.6,2.36 -15.65,6.46 -2.09,1.41 -4.7,3.91 -7.39,2.99 -2.1,-0.72 -4.09,-3.86 -4.4,-5.75zm40.72 53.56c-10.62,-8.61 -5.99,-7.88 1.69,-21.58 3.52,-6.27 7.96,1.86 4.35,-8.96 -0.82,-2.44 -4.97,-8.26 -6.81,-11.92 -2.19,-4.33 -7.44,-7.43 -2.61,-12.08 5.22,-5.03 -1.44,-6.21 -6.08,-8.55 -9.64,-4.88 -21.2,-3.33 -29.9,2.52 -17.3,11.62 -20,36.68 -10.35,53.49 10.23,17.83 36.17,23.48 49.71,7.08z"/>
   <path class="fil0 str0" d="M167.43 24.02c-23.11,3.42 -29.01,10.42 -34.6,31 -2.33,8.57 2.51,8.08 9.78,10.07 3.12,0.86 16.68,2.57 19.49,1.89 7.26,-1.77 8.67,-5.29 10.41,-11.35 1.69,-5.88 2.8,-12.62 2.76,-18.7 -0.03,-3.45 -0.17,-6.23 -1.36,-9.5 -1.49,-4.1 -1.91,-4.09 -6.48,-3.41z"/>
   <path class="fil0 str0" d="M340.06 141.47c1.56,-0.59 47.38,6.25 54.17,6.76 10.53,0.8 20.23,0.21 30.66,0.35 4.44,0.06 28.26,-1.3 29.06,-1.18 -6.55,13.22 -99.58,10.25 -113.89,-5.93zm43.47 3.44c-6.45,-0.43 -46.11,-4.37 -49.13,-8.15 -1.93,-2.4 -8.91,-9.01 -3.77,-10.11 1.21,-0.26 27.45,5.69 31.42,6.32 32,5.1 42,4.91 73.47,5.52 1.54,0.03 39.7,-1.03 23.53,6.26 -6.43,2.9 -64.69,0.9 -75.52,0.16zm-57.79 -15.3c9.54,10.06 10.48,16.28 26.46,21.43 13.87,4.47 28.56,5.87 43.13,6.64 15.26,0.81 31.57,1.39 46.39,-2.51 8.67,-2.28 9.8,-3.8 16.96,-7.37 5.4,-2.69 7.61,-9.82 14.52,-10.02l5.43 3.98c1.51,-4.59 -4.46,-5.95 -6.31,-6.89 -1.38,-0.7 -7.25,-6.5 -9.27,-2.1l6.18 3.14 -4.68 3.18c-6.31,-6.69 -22.49,-3.7 -31.98,-3.73 -11.48,-0.03 -23.91,0.16 -35.27,-1.1 -8.65,-0.95 -59.27,-6.15 -62.43,-9.9 2.56,-3.14 4.32,0.21 5.6,-2.52 2.26,-4.78 -11.7,1.93 -15.98,5.39 -2.24,1.81 -7.32,7.41 -5.63,10.1 1.31,2.09 3.86,-4.88 6.88,-7.72z"/>
   <path class="fil0 str0" d="M330.63 126.65c-5.14,1.1 1.84,7.71 3.77,10.11 3.02,3.78 42.68,7.72 49.13,8.15 10.83,0.74 69.09,2.74 75.52,-0.16 16.17,-7.29 -21.99,-6.23 -23.53,-6.26 -31.47,-0.61 -41.47,-0.42 -73.47,-5.52 -3.97,-0.63 -30.21,-6.58 -31.42,-6.32z"/>
   <path class="fil0 str0" d="M128.74 122.31l-2.61 12.97c-1.79,0.45 -9.03,-0.1 -11.37,-0.18 -2.89,11.58 6.54,16.69 15.33,12.73l1.25 0.28 9.49 -36.73 -1.36 -0.31c-4.17,-3.37 -10.78,-4.13 -8.16,-10.33 2.75,-6.53 9.26,-3.4 15.61,-4.87l2.61 -12.52c-21.7,-3.35 -17.2,-2.79 -24.09,14.01 -2,4.9 -3.85,9.71 -5.7,14.66 -3.33,8.89 4.49,4.93 9,10.29z"/>
   <path class="fil0 str0" d="M237.84 143.75c-21.53,5.6 -13.33,37.89 2.59,35.39 7.95,-1.24 12.9,-12.25 12.29,-19.02 -0.59,-6.59 -6.01,-18.68 -14.88,-16.37z"/>
   <path class="fil0 str0" d="M39.04 162.13c-3.46,-6.01 -3.23,-13.37 -0.04,-19.37 2.77,-0.24 2.8,-0.06 5.28,0.64 1.22,3.8 0.34,7.45 0.32,11.48 -0.02,4.24 -0.13,7.7 -5.56,7.25zm7.78 8.77c0.62,0.36 11.84,11.19 8.47,2.7 -0.99,-2.5 -5.71,-3.59 -7.13,-12.28 -4.06,-24.78 11.29,-19.87 5.47,-29.44l-5.51 3.21c-9.46,-4.89 -0.83,-9.11 2.12,-12.32l-4.46 -5.62c-19.21,7.74 -15.6,65.01 0.46,69.87 7.83,2.37 -0.05,-5.98 -1.26,-7.19 -4.04,-4.06 -2.77,-6.57 1.84,-8.93z"/>
   <path class="fil0 str0" d="M340.06 141.47c14.31,16.18 107.34,19.15 113.89,5.93 -0.8,-0.12 -24.62,1.24 -29.06,1.18 -10.43,-0.14 -20.13,0.45 -30.66,-0.35 -6.79,-0.51 -52.61,-7.35 -54.17,-6.76z"/>
   <path class="fil0 str0" d="M46.81 173.13c2.82,2.64 3.04,3.18 6.31,5.56 -0.08,2.03 -0.22,2.75 -1.76,4.3 -2.42,-1.51 -6.83,-5.31 -6.94,-8.26l2.39 -1.6zm9.47 -2.71c-7.69,-4.06 -8.33,-26.09 -0.62,-29.97 3.03,9.39 3.34,20.45 0.62,29.97zm-9.66 -41.02c1.56,-2.36 2.62,-2.51 4.82,-4.04 1.15,1.52 1,1.55 1.34,3.52l-4.3 3.18c-1.45,-1.29 -1.3,-0.96 -1.86,-2.66zm0.2 41.5c-4.61,2.36 -5.88,4.87 -1.84,8.93 1.21,1.21 9.09,9.56 1.26,7.19 -16.06,-4.86 -19.67,-62.13 -0.46,-69.87l4.46 5.62c-2.95,3.21 -11.58,7.43 -2.12,12.32l5.51 -3.21c5.82,9.57 -9.53,4.66 -5.47,29.44 1.42,8.69 6.14,9.78 7.13,12.28 3.37,8.49 -7.85,-2.34 -8.47,-2.7zm-3.24 -56.71c-2.62,1.41 -9.56,12.67 -10.68,16.05 -6.81,20.34 0.28,61.62 14.89,59.4 11.8,-1.78 12.83,-32.3 12.52,-40.27 -0.18,-4.5 -8.05,-39.84 -16.73,-35.18z"/>
   <path class="fil0 str0" d="M330.61 109.84c4.34,0.53 29.85,3.04 32.28,2.44 -0.24,-13.48 -39.86,-18.01 -49.65,-19.86 -0.59,3.86 3.35,8.89 4.76,12.6 1.29,3.4 -0.2,4.16 4.04,4.57 2.84,0.28 5.51,-0.12 8.57,0.25z"/>
   <path class="fil0 str0" d="M191.62 111.06c4.42,-1.78 10.27,-8.72 20.02,-12.09 12.09,-4.19 16.41,-4.03 29.22,-3.53 -3.27,-11.23 -18.59,-17.53 -30.34,-10.81 -7.44,4.26 -17.71,18.29 -18.9,26.43z"/>
   <path class="fil0 str0" d="M529.1 174.2c-2.69,1.08 -5.32,17.98 -24.91,24.02 -7.49,2.31 -13.48,2.77 -20.78,4.27 -2.09,0.42 -12.23,11.05 -12.15,11.11 5.91,5.41 32.45,-4.86 39.32,-9.95 6.66,-4.93 19.35,-21.76 18.52,-29.45z"/>
   <path class="fil0 str0" d="M313.24 92.42c9.79,1.85 49.41,6.38 49.65,19.86 -2.43,0.6 -27.94,-1.91 -32.28,-2.44 -3.06,-0.37 -5.73,0.03 -8.57,-0.25 -4.24,-0.41 -2.75,-1.17 -4.04,-4.57 -1.41,-3.71 -5.35,-8.74 -4.76,-12.6zm-3.55 -0.14c0.12,0.18 6.44,15.59 6.55,16.16 -10.78,-1.11 -13.38,-2.83 -19.87,-10.3 -2.13,-2.45 -6.11,-7.47 0.38,-7.89 0.03,0 12.92,2.02 12.94,2.03zm-15.22 -3.92c-8.26,3.51 -1.01,11.09 3.03,14.83 7.15,6.62 8.49,6.22 17.87,7.65 5.38,0.81 45.04,4.71 47.75,3.89 6.79,-2.03 -1.38,-16.34 -25.21,-20.11 -6.54,-1.03 -39.44,-7.95 -43.44,-6.26z"/>
   <path class="fil0 str0" d="M167.43 24.02c4.57,-0.68 4.99,-0.69 6.48,3.41 1.19,3.27 1.33,6.05 1.36,9.5 0.04,6.08 -1.07,12.82 -2.76,18.7 -1.74,6.06 -3.15,9.58 -10.41,11.35 -2.81,0.68 -16.37,-1.03 -19.49,-1.89 -7.27,-1.99 -12.11,-1.5 -9.78,-10.07 5.59,-20.58 11.49,-27.58 34.6,-31zm-1.41 -2.32c-6.95,1.13 -12.52,2.93 -18.9,5.7 -6.98,3.04 -8.28,6.04 -11.58,12.4 -2.16,4.16 -5.17,13.2 -5.95,17.76 -1.34,7.72 7.81,9.16 14.19,10.32 16.54,3 27.17,4.34 31.77,-13.28 1.76,-6.74 2.72,-13.99 2.28,-20.92 -0.5,-7.86 -2.15,-13.55 -11.81,-11.98z"/>
   <path class="fil0 str0" d="M225.73 42.23c-18.13,3.89 2.65,23.33 10.71,18.01 16.3,-10.73 2.06,-20.76 -10.71,-18.01z"/>
   <path class="fil0 str0" d="M252.17 226.05c7.72,0.98 22.65,-5.98 28.49,-11.42 3.07,-2.86 6.53,-8.13 8.9,-11.69 2.93,-4.4 -6.14,-8.33 -8.69,-8.62 -4.13,7.81 -4.4,11.97 -10.98,19.07 -6.3,6.8 -13.65,8.84 -17.72,12.66z"/>
   <path class="fil0 str0" d="M430.71 206.39c2.83,5 19.14,7.07 25.02,7.51 5.06,0.38 10.3,1.02 13.78,-2.21 3.07,-2.84 7.3,-3.85 8.22,-8.28l-47.02 2.98z"/>
   <path class="fil0 str0" d="M309.01 62.24c10.22,-10.34 -7.45,-17.78 -17.5,-14.1 -6.1,2.23 -3.43,8.31 0.48,11.47 4.59,3.7 11.13,1.62 17.02,2.63z"/>
   <path class="fil0 str0" d="M516.39 112.17c-0.97,-4.3 -4.82,-10.75 -7.15,-14.77 -6.36,-0.29 -15.29,5.52 -13.84,13.01 1.16,6 3.22,5.27 9.26,4.61 5.1,-0.56 7.16,-1.45 11.73,-2.85z"/>
   <path class="fil0 str0" d="M237.84 143.75c8.87,-2.31 14.29,9.78 14.88,16.37 0.61,6.77 -4.34,17.78 -12.29,19.02 -15.92,2.5 -24.12,-29.79 -2.59,-35.39zm-1 -2.4c-23.62,6.14 -15.9,43.23 4.25,40.12 9.46,-1.46 14.89,-13.96 14.17,-22.09 -0.73,-8.23 -8.09,-20.71 -18.42,-18.03z"/>
   <path class="fil0 str0" d="M309.69 92.28c-0.02,-0.01 -12.91,-2.03 -12.94,-2.03 -6.49,0.42 -2.51,5.44 -0.38,7.89 6.49,7.47 9.09,9.19 19.87,10.3 -0.11,-0.57 -6.43,-15.98 -6.55,-16.16z"/>
   <path class="fil0 str0" d="M26.5 112.95c1.58,-0.7 6.4,-8.71 8.76,-10.96 4.98,-4.73 7.85,-4.43 12.43,-7.62 -2.05,-7.24 -10.82,-8.52 -15.87,-2.26 -4.31,5.33 -7.31,14.15 -5.32,20.84z"/>
   <path class="fil0 str0" d="M56.28 170.42c2.72,-9.52 2.41,-20.58 -0.62,-29.97 -7.71,3.88 -7.07,25.91 0.62,29.97z"/>
   <path class="fil0 str0" d="M111.25 52.44c0.64,-2.9 13.31,-13.67 16.89,-13.74l-6.31 18.73c-3.23,-0.48 -8.24,-2.85 -10.58,-4.99zm12.39 7.2c0.89,-1.27 3.57,-10.42 4.21,-12.65l3.23 -9.17c1.4,-2.34 1.22,0.69 2.18,-2.56 -1.03,-0.63 -2.05,-0.83 -3.56,-0.43 -5.65,1.49 -13.07,8.02 -17.11,11.71 -3.53,3.22 -6.5,5.95 -0.94,9.34 3.21,1.96 8.18,4.85 11.99,3.76z"/>
   <path class="fil0 str0" d="M211.21 171.79c-2.9,-2.8 -2.16,-7.63 -2.07,-11.36 0.13,-5.27 -0.85,-7.47 2.57,-11.71 5.06,3.01 2.62,5.43 2.52,11.15 -0.08,4.13 1.97,11.36 -3.02,11.92zm-0.63 -25.28c-4.82,1.96 -3.94,11.93 -4.09,16.14 -0.13,3.67 0.21,14.55 7.01,11.21 5.61,-2.76 3.02,-11.28 3.39,-16.78 0.2,-3.01 1.75,-5.51 -0.09,-7.55 -1.48,-1.64 -3.99,-3.92 -6.22,-3.02z"/>
   <path class="fil0 str0" d="M219.59 136.97c2.81,-4.78 16.48,-8.73 21.96,-7.37 0.48,5.08 -5.58,3.19 -9.91,4.73 -3.56,1.26 -6.84,4.68 -10.08,5.2l-1.97 -2.56zm-3.14 -0.84c0.31,1.89 2.3,5.03 4.4,5.75 2.69,0.92 5.3,-1.58 7.39,-2.99 6.05,-4.1 13.71,-1.84 15.65,-6.46 4.54,-10.8 -21.18,-4.02 -27.44,3.7z"/>
   <path class="fil0 str0" d="M111.25 52.44c2.34,2.14 7.35,4.51 10.58,4.99l6.31 -18.73c-3.58,0.07 -16.25,10.84 -16.89,13.74z"/>
   <path class="fil0 str0" d="M90.77 193.96l4.92 -0.4c2.3,-6.66 1.49,-7.38 1.41,-14.32l-3.55 -2.16c-7.09,3.3 -6.72,11.37 -2.78,16.88z"/>
   <path class="fil0 str0" d="M211.21 171.79c4.99,-0.56 2.94,-7.79 3.02,-11.92 0.1,-5.72 2.54,-8.14 -2.52,-11.15 -3.42,4.24 -2.44,6.44 -2.57,11.71 -0.09,3.73 -0.83,8.56 2.07,11.36z"/>
   <path class="fil0 str0" d="M253.96 182.62c1.12,2.24 1.72,2.85 4.24,3.65 2.33,-1.2 14.59,-17.24 4.19,-17.48 -1.46,2.25 -2.48,4.6 -3.68,6.99 -1.48,2.97 -3.29,4.48 -4.75,6.84z"/>
   <path class="fil0 str0" d="M77.54 189.75c3.96,-4.55 4.68,-10.42 0.62,-15.19 -4.91,-0.28 -5.81,2.25 -6.01,6.91 -0.17,3.82 0.92,8 5.39,8.28z"/>
   <path class="fil0 str0" d="M41.51 159.33c-4.17,-0.89 -2.5,-12.45 -0.03,-14.22 1.59,1.58 0.37,13.25 0.03,14.22zm-2.47 2.8c5.43,0.45 5.54,-3.01 5.56,-7.25 0.02,-4.03 0.9,-7.68 -0.32,-11.48 -2.48,-0.7 -2.51,-0.88 -5.28,-0.64 -3.19,6 -3.42,13.36 0.04,19.37z"/>
   <path class="fil0 str0" d="M114.6 131.75c8.7,0.9 8.87,2.07 10.34,-3.31 0.47,-1.69 0.91,-3.19 0.77,-4.88l-8.38 -3.47c-1.25,2.88 -2.74,8.67 -2.73,11.66z"/>
   <path class="fil0 str0" d="M223.41 183.16c1.73,0.75 2.74,1.72 4.37,2.55 1.86,0.96 3.5,1.24 5.04,1.98 4.03,1.94 10.88,-0.93 9.02,4.29 -5.13,2.18 -17.51,-1.13 -20.46,-5.81l2.03 -3.01zm-0.69 -1.72c-10.87,8.93 10.91,13.68 17.87,12.85 3.2,-0.38 4.31,-2.42 3.18,-5.27 -1.12,-2.84 -4.72,-2.08 -7.24,-2.3 -3.8,-0.33 -11.43,-5.11 -13.81,-5.28z"/>
   <path class="fil0 str0" d="M219.59 136.97l1.97 2.56c3.24,-0.52 6.52,-3.94 10.08,-5.2 4.33,-1.54 10.39,0.35 9.91,-4.73 -5.48,-1.36 -19.15,2.59 -21.96,7.37z"/>
   <path class="fil0 str0" d="M241.84 191.98c1.86,-5.22 -4.99,-2.35 -9.02,-4.29 -1.54,-0.74 -3.18,-1.02 -5.04,-1.98 -1.63,-0.83 -2.64,-1.8 -4.37,-2.55l-2.03 3.01c2.95,4.68 15.33,7.99 20.46,5.81z"/>
   <path class="fil0 str0" d="M107.65 99.66c-1.64,-2.34 0.14,-5.18 2.82,-6.03 0.05,1.91 -1.23,4.94 -2.82,6.03zm1.84 -9.15c-7.85,2.46 -7.72,14.1 -0.38,12.06 2.42,-0.68 3.79,-5.1 4.75,-7.28 1.46,-3.32 -2.32,-5.42 -4.37,-4.78z"/>
   <path class="fil0 str0" d="M518.8 110.56c4.25,-0.83 3.43,-6 2.92,-9.39 -1.4,-1.13 -2.96,-1.84 -4.49,-2.93 -2.55,-1.84 -2.19,-2.8 -5.56,-2.57 0.53,2.25 5.72,11.84 7.13,14.89z"/>
   <path class="fil0 str0" d="M81.36 188.99c5.42,1.71 3.62,-3.33 4.75,-7.21 1.33,-4.54 2.92,-4.33 5.84,-7.01 -2.82,-1.44 -12.79,-5.19 -9.9,1.27 2.49,5.54 1.9,7.7 -0.69,12.95z"/>
   <path class="fil0 str0" d="M97.83 193.58c3.97,0.57 7.17,-0.13 10.92,-1.17 -1.18,-2.21 -3.38,-3.58 -4.76,-5.85 -1.63,-2.71 -1.37,-5.21 -4.75,-6.19 -0.66,6.22 0.93,6.46 -1.41,13.21z"/>
   <path class="fil0 str0" d="M260.44 152.39c1.06,-1.33 1.19,-1.97 0.58,-4.46l-3.88 -12.45c-5.04,1.03 -3.49,4.55 -1.19,7.78 2.77,3.92 2.91,4.79 4.49,9.13z"/>
   <path class="fil0 str0" d="M44.42 174.73c0.11,2.95 4.52,6.75 6.94,8.26 1.54,-1.55 1.68,-2.27 1.76,-4.3 -3.27,-2.38 -3.49,-2.92 -6.31,-5.56l-2.39 1.6z"/>
   <path class="fil0 str0" d="M140.75 99.75c1.04,2.43 4.96,6.43 6.93,7.99 0.63,-3.65 -0.86,-5.43 1.05,-9.08l-7.98 1.09z"/>
   <path class="fil0 str0" d="M41.51 159.33c0.34,-0.97 1.56,-12.64 -0.03,-14.22 -2.47,1.77 -4.14,13.33 0.03,14.22z"/>
   <path class="fil0 str0" d="M46.62 129.4c0.56,1.7 0.41,1.37 1.86,2.66l4.3 -3.18c-0.34,-1.97 -0.19,-2 -1.34,-3.52 -2.2,1.53 -3.26,1.68 -4.82,4.04z"/>
   <path class="fil0 str0" d="M107.65 99.66c1.59,-1.09 2.87,-4.12 2.82,-6.03 -2.68,0.85 -4.46,3.69 -2.82,6.03z"/>
  </g>
 </g>
</svg>
